# xmcd CD database file
#
# Track frame offsets:
#	150
#	29130
#	74003
#	108593
#	146068
#	182905
#	212458
#	255518
#	279243
#
# Disc length: 4520 seconds
#
# Revision: 2
# Processed by: cddbd v1.4b41PL1 Copyright (c) Steve Scherf et al.
# Submitted via: Feurio! 1.50.2ß - http://www.feurio.com
#
DISCID=8d11a609
DTITLE=Grateful Dead - Omni Atlanta, GA 5/30/94 Disc 1
DYEAR=1900
DGENRE=
TTITLE0=Here Comes Sunshine
TTITLE1=Feels Like A Stranger
TTITLE2=Jack-A-Roe
TTITLE3=El Paso
TTITLE4=Lazy River Road
TTITLE5=The Same Thing
TTITLE6=New Speedway
TTITLE7=Promised Land
TTITLE8=Scarlet Begonia
EXTD=
EXTT0=
EXTT1=
EXTT2=
EXTT3=
EXTT4=
EXTT5=
EXTT6=
EXTT7=
EXTT8=
PLAYORDER=
